<svg t="1642574859974" class="icon" viewBox="0 0 1099 1024" version="1.1" xmlns="http://www.w3.org/2000/svg" p-id="4791" width="24" height="24"><path d="M821.76 756.2c0 3.9 0 47.7 0 61.9 0 6.6-1.3 10.1-9.2 10.1L276.26 828.2c-10.4 0-11.4-5.8-12.1-13.9L264.16 228.6c0-5.3 2.7-10.3 9.4-10.3l159.9 0.8c7 0 12.8 8.9 12.8 15.8s-5.2 16.7-12.1 16.7L303.56 251.6c-5.3 0-5.7 0.2-5.7 9.5l-0.1 523.4c0 7.1 2 10.7 10.8 10.7l473.9 0c3.3 0 5.8-2 5.8-5.7 0-6.8 0-22.4 0-34L821.76 756.2zM788.36 287.8c0-11.4 0-24.5 0-30.7 0-3.7-4.1-5.5-6.7-5.5l-117.1-1c-8.6-0.5-13.6-9.7-13.6-16.7 0-7 5.6-15.7 13.9-15.7l149.7 0.1c4.9 0 7.2 3.3 7.2 6.1 0 10.4 0 58.4 0 63.4L788.36 287.8zM481.26 273.4l137 0c13.1 0 22.5-9.9 22.5-24.4 0-11.7 0-35.7 0-44.1 0-6.4-1.8-9-10.9-9L466.06 195.9c-8.8 0-10.3 4.7-10.3 12.7 0 10.1 0 31.6 0 39C455.76 263.1 465.76 273.4 481.26 273.4z" p-id="4792" fill="#333333"></path><path d="M803.96 310.6l-30.2 59.1 0 284.6L834.16 654.3l0-286L803.96 310.6zM773.76 694.8c0 17.5 13.5 24.4 30.2 24.4 16.7 0 30.2-6.8 30.2-24.3l0-24.4-60.4 0L773.76 694.8z" p-id="4793" fill="#333333"></path><path d="M399.36 416.768l292.864 0 0 29.696-292.864 0 0-29.696Z" p-id="4794" fill="#333333"></path><path d="M399.36 544.768l292.864 0 0 29.696-292.864 0 0-29.696Z" p-id="4795" fill="#333333"></path><path d="M399.36 667.648l292.864 0 0 29.696-292.864 0 0-29.696Z" p-id="4796" fill="#333333"></path></svg>