<svg t="1649319557516" class="icon" viewBox="0 0 1024 1024" version="1.1" xmlns="http://www.w3.org/2000/svg" p-id="2222" data-spm-anchor-id="a313x.7781069.0.i0" width="24" height="24"><path d="M498.095 146.134l403.416 403.415c17.387 17.387 45.576 17.387 62.963 0s17.387-45.576 0-62.963L499.888 22 35.302 486.586c-17.388 17.387-17.388 45.575 0 62.963 17.387 17.387 45.576 17.387 62.964 0L498.095 146.134zM498.817 592.073l402.693 402.693c17.387 17.387 45.576 17.387 62.963 0s17.387-45.576 0-62.963L499.888 467.219 35.302 931.804c-17.388 17.387-17.388 45.576 0 62.963 17.387 17.387 45.576 17.387 62.964 0L498.817 592.073z" p-id="2223" fill="#5D82F3"></path></svg>