<svg t="1642579592929" class="icon" viewBox="0 0 1024 1024" version="1.1" xmlns="http://www.w3.org/2000/svg" p-id="7729" width="24" height="24"><path d="M488 722h421a50 50 0 0 1 50 50v80a50 50 0 0 1-50 50H488a50 50 0 0 1-50-50v-10H157a30 30 0 0 1-30-30V302h-12a50 50 0 0 1-50-50v-80a50 50 0 0 1 50-50h83a50 50 0 0 1 50 50v80a50 50 0 0 1-50 50h-11v180h251v-10a50 50 0 0 1 50-50h421a50 50 0 0 1 50 50v80a50 50 0 0 1-50 50H488a50 50 0 0 1-50-50v-10H187v240h251v-10a50 50 0 0 1 50-50z m10 100a20 20 0 0 0 20 20h361a20 20 0 0 0 20-20v-20a20 20 0 0 0-20-20H518a20 20 0 0 0-20 20v20zM187.594 222v-20a20 20 0 0 0-20-20H145a20 20 0 0 0-20 20v20a20 20 0 0 0 20 20h22.594a20 20 0 0 0 20-20zM498 522a20 20 0 0 0 20 20h361a20 20 0 0 0 20-20v-20a20 20 0 0 0-20-20H518a20 20 0 0 0-20 20v20z m411-220H358a50 50 0 0 1-50-50v-80a50 50 0 0 1 50-50h551a50 50 0 0 1 50 50v80a50 50 0 0 1-50 50z m-10-100a20 20 0 0 0-20-20H388a20 20 0 0 0-20 20v20a20 20 0 0 0 20 20h491a20 20 0 0 0 20-20v-20z" fill="#333333" p-id="7730"></path></svg>