<?xml version="1.0" encoding="utf-8"?>
<svg version="1.1" xmlns:xlink="http://www.w3.org/1999/xlink" width="24px" height="24px" xmlns="http://www.w3.org/2000/svg">
  <g transform="matrix(1 0 0 1 -156 -228 )">
    <path d="M 168 228.5  C 174.44 228.5  179.5 233.56  179.5 240  C 179.5 246.44  174.44 251.5  168 251.5  C 161.56 251.5  156.5 246.44  156.5 240  C 156.5 233.56  161.56 228.5  168 228.5  Z " fill-rule="nonzero" fill="#ffffff" stroke="none" fill-opacity="0" />
    <path d="M 168 228.5  C 174.44 228.5  179.5 233.56  179.5 240  C 179.5 246.44  174.44 251.5  168 251.5  C 161.56 251.5  156.5 246.44  156.5 240  C 156.5 233.56  161.56 228.5  168 228.5  Z " stroke-width="1" stroke-dasharray="3,1" stroke="#d7d7d7" fill="none" stroke-dashoffset="0.5" />
  </g>
</svg>