<?xml version="1.0" encoding="utf-8"?>
<svg version="1.1" xmlns:xlink="http://www.w3.org/1999/xlink" width="24px" height="24px" xmlns="http://www.w3.org/2000/svg">
  <g transform="matrix(1 0 0 1 -156 -168 )">
    <path d="M 168 168  C 174.72 168  180 173.28  180 180  C 180 186.72  174.72 192  168 192  C 161.28 192  156 186.72  156 180  C 156 173.28  161.28 168  168 168  Z " fill-rule="nonzero" fill="#5d82f3" stroke="none" />
    <path d="M 168 168.5  C 174.44 168.5  179.5 173.56  179.5 180  C 179.5 186.44  174.44 191.5  168 191.5  C 161.56 191.5  156.5 186.44  156.5 180  C 156.5 173.56  161.56 168.5  168 168.5  Z " stroke-width="1" stroke="#d7d7d7" fill="none" />
  </g>
</svg>