<?xml version="1.0" encoding="utf-8"?>
<svg version="1.1" xmlns:xlink="http://www.w3.org/1999/xlink" width="76px" height="43px" xmlns="http://www.w3.org/2000/svg">
  <g transform="matrix(1 0 0 1 -167 0 )">
    <path d="M 168 5  A 4 4 0 0 1 172 1 L 238 1  A 4 4 0 0 1 242 5 L 242 38  A 4 4 0 0 1 238 42 L 172 42  A 4 4 0 0 1 168 38 L 168 5  Z " fill-rule="nonzero" fill="#ffffff" stroke="none" />
    <path d="M 167.5 5  A 4.5 4.5 0 0 1 172 0.5 L 238 0.5  A 4.5 4.5 0 0 1 242.5 5 L 242.5 38  A 4.5 4.5 0 0 1 238 42.5 L 172 42.5  A 4.5 4.5 0 0 1 167.5 38 L 167.5 5  Z " stroke-width="1" stroke="#ff1a00" fill="none" stroke-opacity="0.996078431372549" />
  </g>
</svg>