<?xml version="1.0" encoding="utf-8"?>
<svg version="1.1" xmlns:xlink="http://www.w3.org/1999/xlink" width="334px" height="186px" xmlns="http://www.w3.org/2000/svg">
  <defs>
    <filter x="0px" y="0px" width="334px" height="186px" filterUnits="userSpaceOnUse" id="filter41">
      <feOffset dx="2" dy="2" in="SourceAlpha" result="shadowOffsetInner" />
      <feGaussianBlur stdDeviation="1" in="shadowOffsetInner" result="shadowGaussian" />
      <feComposite in2="shadowGaussian" operator="atop" in="SourceAlpha" result="shadowComposite" />
      <feColorMatrix type="matrix" values="0 0 0 0 0  0 0 0 0 0  0 0 0 0 0  0 0 0 0.349019607843137 0  " in="shadowComposite" />
    </filter>
    <g id="widget42">
      <path d="M 1 5  A 4 4 0 0 1 5 1 L 325 1  A 4 4 0 0 1 329 5 L 329 177  A 4 4 0 0 1 325 181 L 5 181  A 4 4 0 0 1 1 177 L 1 5  Z " fill-rule="nonzero" fill="#ffffff" stroke="none" />
      <path d="M 0.5 5  A 4.5 4.5 0 0 1 5 0.5 L 325 0.5  A 4.5 4.5 0 0 1 329.5 5 L 329.5 177  A 4.5 4.5 0 0 1 325 181.5 L 5 181.5  A 4.5 4.5 0 0 1 0.5 177 L 0.5 5  Z " stroke-width="1" stroke="#4b82ff" fill="none" stroke-opacity="0.52156862745098" />
    </g>
  </defs>
  <g>
    <use xlink:href="#widget42" filter="url(#filter41)" />
    <use xlink:href="#widget42" />
  </g>
</svg>