<?xml version="1.0" encoding="utf-8"?>
<svg version="1.1" xmlns:xlink="http://www.w3.org/1999/xlink" width="48px" height="48px" xmlns="http://www.w3.org/2000/svg">
  <g transform="matrix(1 0 0 1 -23 -10 )">
    <path d="M 47 10  C 60.44 10  71 20.56  71 34  C 71 47.44  60.44 58  47 58  C 33.56 58  23 47.44  23 34  C 23 20.56  33.56 10  47 10  Z " fill-rule="nonzero" fill="#ffffff" stroke="none" />
    <path d="M 47 10.5  C 60.16 10.5  70.5 20.84  70.5 34  C 70.5 47.16  60.16 57.5  47 57.5  C 33.84 57.5  23.5 47.16  23.5 34  C 23.5 20.84  33.84 10.5  47 10.5  Z " stroke-width="1" stroke="#5d81f2" fill="none" />
  </g>
</svg>