<svg t="1601172275404" class="icon" viewBox="0 0 1024 1024" version="1.1" xmlns="http://www.w3.org/2000/svg" p-id="4473" width="200" height="200"><path d="M397.61 641.62c-100.54 0-182.35-81.8-182.35-182.36s81.81-182.35 182.35-182.35S580 358.71 580 459.26s-81.84 182.36-182.39 182.36z m0-297.66a115.3 115.3 0 1 0 115.3 115.3A115.42 115.42 0 0 0 397.61 344z" fill="#4B82FF" p-id="4474"></path><path d="M236.5 946.81C136 946.81 54.14 865 54.14 764.46S136 582.1 236.5 582.1s182.35 81.81 182.35 182.36S337 946.81 236.5 946.81z m0-297.65a115.3 115.3 0 1 0 115.3 115.3 115.42 115.42 0 0 0-115.3-115.3z" fill="#4B82FF" p-id="4475"></path><path d="M580.64 948.57c-100.54 0-182.35-81.8-182.35-182.36s81.81-182.35 182.35-182.35S763 665.66 763 766.21s-81.81 182.36-182.36 182.36z m0-297.65a115.3 115.3 0 1 0 115.3 115.29 115.42 115.42 0 0 0-115.3-115.29z" fill="#4B82FF" p-id="4476"></path><path d="M507.41 595.12a33.53 33.53 0 0 1-23.71-57.23l230.77-230.76a107.89 107.89 0 0 0-152.58-152.58l-175 175a33.53 33.53 0 1 1-47.42-47.41l175-175a175.36 175.36 0 0 1 247.41 0c68.19 68.21 68.19 179.19 0 247.4L531.12 585.3a33.42 33.42 0 0 1-23.71 9.82z" fill="#4B82FF" p-id="4477"></path><path d="M696.82 891a33.53 33.53 0 0 1-25.7-55l173.12-206.92c41.44-45 38.73-113.34-5-153.69a108.31 108.31 0 0 0-152.47 6.06L518.89 663.24a33.52 33.52 0 1 1-49.24-45.49L637.55 436a173.79 173.79 0 0 1 121.59-56c47.23-1.57 91.41 14.54 125.62 46.14 70.88 65.43 75.28 176.32 9.82 247.19L722.55 879a33.45 33.45 0 0 1-25.73 12z" fill="#4B82FF" p-id="4478"></path><path d="M393.14 455m-65.27 0a65.27 65.27 0 1 0 130.54 0 65.27 65.27 0 1 0-130.54 0Z" fill="#4B82FF" p-id="4479"></path><path d="M239.08 760.59m-65.27 0a65.27 65.27 0 1 0 130.54 0 65.27 65.27 0 1 0-130.54 0Z" fill="#4B82FF" p-id="4480"></path><path d="M576.46 767.59m-65.27 0a65.27 65.27 0 1 0 130.54 0 65.27 65.27 0 1 0-130.54 0Z" fill="#4B82FF" p-id="4481"></path></svg>