<svg t="1642414423977" class="icon" viewBox="0 0 1024 1024" version="1.1" xmlns="http://www.w3.org/2000/svg" p-id="3058" width="24" height="24"><path d="M531.2 179.2c-38.4 0-38.4 38.4-38.4 76.8v403.2l-89.6 57.6-44.8-38.4C313.6 640 204.8 524.8 153.6 576c-38.4 51.2 230.4 281.6 230.4 281.6 6.4 6.4 19.2 19.2 32 19.2h428.8c12.8 0 19.2-6.4 19.2-19.2V608c0-12.8 0-19.2-19.2-25.6L608 486.4c-25.6-12.8-32-32-32-64V249.6c0-38.4-6.4-70.4-44.8-70.4z" fill="#333333" opacity=".1" p-id="3059" data-spm-anchor-id="a313x.7781069.0.i1" class="selected"></path><path d="M928 992H396.8c-25.6 0-51.2-12.8-70.4-32l-249.6-262.4c-64-64-64-172.8 0-236.8 83.2-76.8 211.2 19.2 262.4 57.6l44.8 38.4V185.6C384 102.4 448 32 531.2 32s140.8 64 140.8 153.6v160c0 12.8 6.4 25.6 19.2 32l249.6 102.4c32 12.8 51.2 38.4 51.2 70.4v384c0 32-25.6 57.6-64 57.6z m-768-492.8c-12.8 0-25.6 0-38.4 12.8-38.4 38.4-38.4 102.4 0 147.2l249.6 262.4c6.4 6.4 12.8 12.8 25.6 12.8h531.2v-384c0-6.4-6.4-12.8-6.4-12.8l-249.6-102.4c-38.4-19.2-64-57.6-64-96V185.6c0-51.2-32-89.6-76.8-89.6S448 134.4 448 185.6v441.6l-51.2 25.6-96-83.2C256 537.6 198.4 499.2 160 499.2z" fill="#333333" p-id="3060" data-spm-anchor-id="a313x.7781069.0.i0" class="selected"></path></svg>