<svg t="1642414544917" class="icon" viewBox="0 0 1024 1024" version="1.1" xmlns="http://www.w3.org/2000/svg" p-id="4545" width="36" height="36"><path d="M671.849562 474.915365v148.26626l136.682959 312.749143s41.699886 64.866489-25.483264 85.716432c0 0-44.016546 6.949981-64.866489-34.749905l-120.466336-229.349371s-27.799924-67.183149-48.649867-44.016546l-85.716432 94.983073s-23.166603 48.649867-23.166603 183.016165c0 0 9.266641 32.433244-53.283187 32.433244 0 0-44.016546 2.31666-44.016546-30.116584v-122.782997s6.949981-141.316279 132.049638-282.632558v-41.699886l-20.849943-115.833016s-25.483263-30.116584-41.699886-4.633321c0 0 4.633321 34.749905-67.183149 71.81647l-83.399771 30.116584s-46.333206 16.216622-53.283188-9.266641c0 0-16.216622-37.066565 9.266642-46.333206l74.13313-41.699886s88.033092-57.916508 83.399771-132.049638c0 0 13.899962-83.399771 90.349753-106.566375 0 0 37.066565-30.116584 83.399771-11.583301l196.916127 90.349752s27.799924 16.216622 27.799924 37.066565v194.599467s4.633321 37.066565-20.849943 37.066565c0 0-44.016546-13.899962-44.016546-27.799924l-2.31666-148.26626s-4.633321-11.583302-37.066565-32.433245l-32.433245-25.483263s-37.066565-25.483263-30.116584 9.266641c0 2.31666 64.866489 99.616394 64.866489 159.849562z m-254.832635-303.482502c-46.333206 0-85.716432-37.066565-85.716432-85.716431 0-46.333206 37.066565-85.716432 85.716432-85.716432s85.716432 37.066565 85.716432 85.716432-37.066565 85.716432-85.716432 85.716431z" p-id="4546" fill="#333333"></path></svg>