<svg t="1642415426943" class="icon" viewBox="0 0 1024 1024" version="1.1" xmlns="http://www.w3.org/2000/svg" p-id="13158" width="36" height="36"><path d="M655.8 64H97v896h212.7l32-64H161V128h416.5v166h-0.3l-0.1 64 224.6 0.2V371c18.9-12.8 40.9-19.9 64-20.6v-45.9L655.8 64z m-14.2 230.1V145l130.2 149.1H641.6zM231 478.2h460.5l6.3-6.3 5.6-5.6v-52H231v63.9z m0 193.4h266.9l64.1-64H231v64zM801.4 896H652.1l0.1 0.1L524.4 960h341l0.2-312.2-64.1 64-0.1 184.2zM231 223.8v64h215.2v-64H231z" fill="#333333" p-id="13159"></path><path d="M231 224h215.2v64H231zM910.1 431.5c-22.5-22.4-58.8-22.4-81.3 0l-40.6 40.6 40 40c0.2 0.2 0.4 0.5 0.7 0.7 0.2 0.2 0.5 0.4 0.7 0.7l40 40 40.6-40.6c22.4-22.6 22.4-58.9-0.1-81.4zM747.5 512.8L503.6 756.5l81.3 81.2L828.8 594zM381.6 959.7l162.7-81.3-81.4-81.3z" fill="#333333" p-id="13160"></path><path d="M231 478.2h460.5l6.3-6.4 5.6-5.6v-52H231zM231 671.6h266.9l64.1-64H231z" fill="#333333" p-id="13161"></path></svg>