<svg t="1642414651601" class="icon" viewBox="0 0 1024 1024" version="1.1" xmlns="http://www.w3.org/2000/svg" p-id="7455" width="36" height="36"><path d="M512 785.79484445c-20.38897778 0-36.70016 16.31118222-36.70016 36.11761777v121.75132445c0 20.38897778 16.31118222 36.11761778 36.70016 36.11761778s36.11761778-16.31118222 36.11761778-36.11761778v-121.75132445c0-19.80643555-15.72864-36.11761778-36.11761778-36.11761777zM512 583.65269333c20.38897778 0 36.11761778-16.31118222 36.11761778-36.11761778V78.58858667c0-20.38897778-16.31118222-36.70016-36.11761778-36.70016s-36.70016 16.31118222-36.70016 36.70016V546.95253333c0 20.38897778 16.31118222 36.70016 36.70016 36.70016z" fill="#333333" p-id="7456"></path><path d="M736.86129778 318.59598222c-19.80643555-4.66033778-39.03032889 7.57304889-43.69066667 27.37948445-4.66033778 19.80643555 7.57304889 39.03032889 27.37948444 43.69066666 114.76081778 26.79694222 195.15164445 77.47811555 195.15164445 122.33386667 0 68.73998222-172.43249778 145.05301333-403.70176 145.05301333S108.29824 580.73998222 108.29824 512c0-30.87473778 39.61287111-71.65269333 126.99420445-102.52743111l-12.8159289 16.89372444c-12.23338667 15.72864-9.32067555 39.03032889 6.99050667 51.26371556 6.40796445 5.24288 14.56355555 7.57304889 22.13660445 7.57304889 11.06830222 0 22.13660445-5.24288 29.12711111-14.56355556l131.072-172.43249777H146.74602667c-19.80643555 0-36.11761778 16.31118222-36.70016 36.11761777 0 19.22389333 15.14609778 35.53507555 34.36999111 36.11761778-69.32252445 37.86524445-108.35285333 87.38133333-108.35285333 141.55776 0 124.08149333 205.05486222 217.87079111 476.51953777 217.87079111s476.51953778-93.78929778 476.51953778-217.87079111c-0.58254222-84.46862222-94.37184-156.70385778-252.24078222-193.40401778z" fill="#333333" p-id="7457"></path></svg>