<svg t="1642415267548" class="icon" viewBox="0 0 1024 1024" version="1.1" xmlns="http://www.w3.org/2000/svg" p-id="11357" width="24" height="24"><path d="M559.2 939.6l368.2-208.1V347.3L559.2 539.4z" fill="#333333" p-id="11358"></path><path d="M471.2 497.1c-2.5 0-5-0.6-7.3-1.8L89.7 303.5c-5.3-2.7-8.6-8.1-8.7-14-0.1-5.9 3.1-11.4 8.3-14.3l374.2-207c4.8-2.7 10.7-2.7 15.5 0l374.2 207c5.2 2.9 8.3 8.3 8.3 14.3-0.1 5.9-3.4 11.3-8.7 14L478.5 495.4c-2.3 1.1-4.8 1.7-7.3 1.7zM131.1 288.7l340.1 174.4 340.1-174.4-340.1-188.1-340.1 188.1z" fill="#333333" p-id="11359"></path><path d="M463.2 907.6c-2.5 0-5.1-0.6-7.4-1.8L87.6 713.7c-5.3-2.8-8.6-8.2-8.6-14.2V299.3c0-5.6 2.9-10.8 7.7-13.7 4.8-2.9 10.7-3.1 15.7-0.5l368.2 192.1c5.3 2.8 8.6 8.2 8.6 14.2v400.2c0 5.6-2.9 10.8-7.7 13.7-2.6 1.5-5.5 2.3-8.3 2.3zM111 689.8l336.2 175.4V501.1L111 325.7v364.1zM559.2 955.6c-2.8 0-5.6-0.7-8.1-2.2-4.9-2.9-7.9-8.1-7.9-13.8V539.4c0-6 3.3-11.4 8.6-14.2L920 333.1c5-2.6 10.9-2.4 15.7 0.5 4.8 2.9 7.7 8.1 7.7 13.7v384.2c0 5.8-3.1 11.1-8.1 13.9L567.1 953.5c-2.5 1.4-5.2 2.1-7.9 2.1z m16-406.5v363l336.2-190V373.7L575.2 549.1z" fill="#333333" p-id="11360"></path></svg>