<svg t="1642415132028" class="icon" viewBox="0 0 1068 1024" version="1.1" xmlns="http://www.w3.org/2000/svg" p-id="7886" width="36" height="36"><path d="M413.872076 338.520687h59.124582v72.283047H413.872076zM194.426645 785.731474l-53.105912 46.910222 41.776651 41.776651 53.105912-46.910222-41.776651-41.776651zM291.905497 778.23764l50.39161-44.54996-41.776651-41.717644-50.332603 44.490953 41.717644 41.776651z" p-id="7887" fill="#333333"></path><path d="M757.76236 0H413.872076L0 195.54777v810.750259l831.225539 17.701971L1068.018901 633.671545V0z m14.27959 574.487957h-10.267143v59.006569h10.267143v331.262879l-671.08171-17.701971 26.375936-23.602628-41.776651-41.776651-26.552956 23.543621V254.731359h354.865507v9.559064h59.006569v-9.559064h299.045292zM472.996658 195.54777V182.920364h-59.006569v12.39138H142.736891l271.135185-129.283393v42.838769h59.006569V59.006569h494.062003l-177.550767 136.541201zM1009.012331 574.487957h-67.267488v59.006569h42.425723l-153.004034 306.834159v-306.834159H867.396566v-59.006569h-36.407053V237.383427L1009.012331 100.96024z" p-id="7888" fill="#333333"></path><path d="M620.159041 574.487957h67.385502v59.124582H620.159041zM545.928777 574.487957H472.996658V485.093004H413.872076v106.742884l-57.590412 50.863663 41.717645 41.717644 57.531404-50.804656h90.398064V574.487957z" p-id="7889" fill="#333333"></path></svg>