<svg t="1642415583134" class="icon" viewBox="0 0 1024 1024" version="1.1" xmlns="http://www.w3.org/2000/svg" p-id="19597" width="36" height="36"><path d="M319.146667 616.106667H126.293333c-47.786667 0-85.333333 37.546667-85.333333 85.333333v197.973333c0 47.786667 37.546667 85.333333 85.333333 85.333334h192.853334c47.786667 0 85.333333-37.546667 85.333333-85.333334V701.44c0-47.786667-37.546667-85.333333-85.333333-85.333333z" fill="#333333" p-id="19598"></path><path d="M884.053333 34.133333H139.946667C85.333333 34.133333 40.96 78.506667 40.96 133.12v368.64c0 18.773333 15.36 32.426667 32.426667 32.426667s32.426667-15.36 32.426666-32.426667V133.12c0-18.773333 15.36-32.426667 32.426667-32.426667h745.813333c18.773333 0 32.426667 15.36 32.426667 32.426667v757.76c0 18.773333-15.36 32.426667-32.426667 32.426667H544.426667c-18.773333 0-32.426667 15.36-32.426667 32.426666s15.36 32.426667 32.426667 32.426667h339.626666c54.613333 0 98.986667-44.373333 98.986667-98.986667V133.12C983.04 78.506667 938.666667 34.133333 884.053333 34.133333z" fill="#333333" p-id="19599"></path><path d="M570.026667 459.093333c6.826667 6.826667 13.653333 10.24 23.893333 10.24s17.066667-3.413333 23.893333-10.24l187.733334-187.733333v139.946667c0 18.773333 15.36 32.426667 32.426666 32.426666 18.773333 0 32.426667-15.36 32.426667-32.426666V187.733333c0-18.773333-15.36-32.426667-32.426667-32.426666h-221.866666c-18.773333 0-32.426667 15.36-32.426667 32.426666s13.653333 34.133333 32.426667 34.133334h145.066666L570.026667 413.013333c-13.653333 11.946667-13.653333 32.426667 0 46.08z" fill="#333333" p-id="19600"></path></svg>