<svg t="1642563798511" class="icon" viewBox="0 0 1024 1024" version="1.1" xmlns="http://www.w3.org/2000/svg" p-id="2295" width="24" height="24"><path d="M831.6 575.6h-63.9v127.9H639.9v63.9h127.8v127.9h63.9V767.4h127.9v-63.9H831.6z" p-id="2296" fill="#ffffff"></path><path d="M831.6 192.1H703.8c0-70.3-57.5-127.9-127.9-127.9H192.4c-70.3 0-127.9 57.5-127.9 127.9V767.5c0 70.3 57.5 127.9 127.9 127.9H576v-63.9H192.4c-35.2 0-63.9-28.7-63.9-63.9V192.1c0-35.2 28.7-63.9 63.9-63.9H576c35.2 0 63.9 28.7 63.9 63.9V256h191.8c35.2 0 63.9 28.7 63.9 63.9v191.8h63.9V319.9c0-70.3-57.5-127.8-127.9-127.8z" p-id="2297" fill="#ffffff"></path></svg>