<?xml version="1.0" encoding="utf-8"?>
<svg version="1.1" xmlns:xlink="http://www.w3.org/1999/xlink" width="75px" height="50px" xmlns="http://www.w3.org/2000/svg">
  <g transform="matrix(1 0 0 1 -8 -29 )">
    <path d="M 8 29  L 83 29  L 83 79  L 8 79  L 8 29  " fill-rule="nonzero" fill="#cccccc" stroke="none" />
    <path d="M 12 33  L 79 33  L 79 75  L 12 75  L 12 33  " fill-rule="nonzero" fill="#ffffff" stroke="none" />
    <path d="M 50.75 44  C 48.65 44  47 42.35  47 40.25  C 47 38.15  48.65 36.5  50.75 36.5  C 52.85 36.5  54.5 38.15  54.5 40.25  C 54.5 42.35  52.85 44  50.75 44  " fill-rule="nonzero" fill="#cccccc" stroke="none" />
    <path d="M 14 74  L 14 52.55  L 30 42.8  L 52.4 58.4  L 65.2 48.65  L 78 58.4  L 78 74  L 14 74  " fill-rule="nonzero" fill="#169bd5" stroke="none" />
  </g>
</svg>