<svg t="1658739838593" class="icon" viewBox="0 0 1024 1024" version="1.1" xmlns="http://www.w3.org/2000/svg" p-id="2285" width="48" height="48"><path d="M849.97 322.64L669.61 142.35c-9.82-9.82-22.88-15.22-36.76-15.22H212.79c-13.89 0-26.95 5.41-36.78 15.24-9.82 9.83-15.23 22.89-15.22 36.78l0.24 696.51c0.01 28.66 23.34 51.98 52 51.98h364.08c17.67 0 32-14.33 32-32s-14.33-32-32-32H225.03l-0.23-672.51h383.35l-0.05 0.84 0.09 139.85c0.02 28.65 23.35 51.96 52 51.96h139.95l1.05-0.04-0.04 223.55c0 17.67 14.32 32 32 32 17.67 0 32-14.32 32-32l0.04-247.89c0.02-13.87-5.39-26.93-15.22-36.76z m-177.78-2.85l-0.06-84.42 84.45 84.42h-84.39z" p-id="2286" fill="#f4ea2a"></path><path d="M319.33 352.22h0.09l128.75-0.35c17.67-0.05 31.96-14.41 31.91-32.09-0.05-17.64-14.37-31.91-32-31.91h-0.09l-128.75 0.35c-17.67 0.05-31.96 14.41-31.91 32.09 0.05 17.64 14.37 31.91 32 31.91zM543.33 448.21c0-17.67-14.33-32-32-32H320.06c-17.67 0-32 14.33-32 32s14.33 32 32 32h191.27c17.68 0 32-14.33 32-32z" p-id="2287" fill="#f4ea2a"></path><path d="M703.81 630.77l-86.23 64.59c-13.94 10.44-16.78 30.27-6.34 44.2 10.52 14.05 30.51 16.92 44.56 6.39l2.72-2.04 91.81 122.58c3.31 4.42 9.58 5.32 14 2.01l7.32-5.48 11.45 15.29c9.13 12.19 26.47 14.68 38.66 5.55l4.6-3.44c13.03-9.76 15.7-28.31 5.93-41.34l-9.85-13.15 7.32-5.48c4.42-3.31 5.32-9.58 2.01-14L739.5 683.26l4.56-3.42c13.37-10.02 16.1-29.04 6.09-42.42-10.94-14.62-31.73-17.6-46.34-6.65z m105.97 179.66l-7.32 5.48c-4.42 3.31-5.32 9.58-2.01 14l15.84 21.15c3.15 4.21 2.29 10.19-1.91 13.34l-4.6 3.44c-3.36 2.52-8.14 1.83-10.66-1.53l-17.45-23.3c-3.31-4.42-9.58-5.32-14-2.01l-7.32 5.48-85.82-114.57 48.98-36.68 86.27 115.2z m-77.7-146.61l-12.57 9.41-64.98 48.67-10.73 8.04c-5.22 3.91-12.65 2.84-16.56-2.38-3.83-5.11-2.78-12.38 2.33-16.21l86.24-64.59c5.78-4.33 14.02-3.15 18.35 2.63 3.39 4.56 2.47 11.03-2.08 14.43zM641.46 618.46l-13.15 9.85c-7.4 5.54-8.91 16.04-3.36 23.44l18.12 24.2 38.62-28.93-19.12-25.53c-4.99-6.67-14.45-8.03-21.11-3.03z" p-id="2288" fill="#f4ea2a"></path><path d="M287.49 672.96c2.28-2.39 4.79-4.46 7.51-6.21v-11.66l27.38-3.53 55.52-22.07 55.19 22.07 26.7 3.52-0.08 42.86v0.03c0 1.01-0.02 2.01-0.05 3.01l5.86 15.38v0.01l4.7 12.33a105.85 105.85 0 0 0 4.52-30.73l0.1-56.05-37.93-4.99-59.01-23.59-59.33 23.59-38.62 4.98 0.02 42.79c1.91-4.51 4.32-8.31 7.22-11.4 0.1-0.14 0.2-0.24 0.3-0.34zM452.04 750.44l-3.37-8.85h-0.1c-5.46 9.84-12.79 18.51-21.66 25.33l-49.67 38.17-25.85-19.95-5.84-4.51-5.78-4.46c-1.86 0.83-4 1.5-6.44 1.98-0.88 0.18-1.78 0.33-2.7 0.46-2.65 0.38-5.45 0.57-8.4 0.57-0.23 0-0.45 0-0.68-0.01l-0.93 1.2 56.61 43.68 58.85-45.22c7.35-5.65 13.8-12.37 19.22-19.87l-3.26-8.52z" p-id="2289" fill="#f4ea2a"></path><path d="M338.33 774.69c3.3-0.66 6.05-1.65 8.26-2.97l7.43 11.23 13.21-11.23-6.61-9.91c4.4-4.4 7.56-10.24 9.49-17.5 1.92-7.27 2.89-16.18 2.89-26.75 0-20.69-4-35.44-11.97-44.25-7.98-8.8-19.13-13.21-33.44-13.21-14.32 0-25.59 4.41-33.85 13.21-8.26 8.81-12.38 23.56-12.38 44.25 0 20.7 4.13 35.56 12.38 44.58 8.26 9.03 19.53 13.54 33.85 13.54 3.85 0 7.44-0.33 10.74-0.99z m-29.31-20.48c-5.24-5.94-7.84-18.16-7.84-36.65s2.61-30.6 7.84-36.33c5.23-5.72 11.42-8.59 18.58-8.59 7.15 0 13.21 2.87 18.16 8.59 4.95 5.73 7.43 17.83 7.43 36.33 0 7.49-0.28 12.99-0.83 16.51-0.55 3.53-1.38 7.49-2.48 11.89l-11.56-17.83-11.56 11.23 13.21 20.47c-1.11 0.89-2.76 1.65-4.95 2.31-2.21 0.66-4.68 0.99-7.43 0.99-7.15 0-13.34-2.97-18.57-8.92zM441.53 660.1h-16.51l-41.28 114.26h19.82l11.56-35h36.33l11.56 35h19.82l-41.3-114.26z m-22.29 66.7l13.21-40.29h1.65l13.21 40.29h-28.07z" p-id="2290" fill="#f4ea2a"></path></svg>