<?xml version="1.0" encoding="utf-8"?>
<svg version="1.1" xmlns:xlink="http://www.w3.org/1999/xlink" width="100px" height="100px" xmlns="http://www.w3.org/2000/svg">
  <g transform="matrix(1 0 0 1 -56 -85 )">
    <path d="M 56 85  L 156 85  L 156 185  L 56 185  L 56 85  " fill-rule="nonzero" fill="#cccccc" stroke="none" />
    <path d="M 63 92  L 149 92  L 149 178  L 63 178  L 63 92  " fill-rule="nonzero" fill="#ffffff" stroke="none" />
    <path d="M 115.5 115  C 111.3 115  108 111.7  108 107.5  C 108 103.3  111.3 100  115.5 100  C 119.7 100  123 103.3  123 107.5  C 123 111.7  119.7 115  115.5 115  " fill-rule="nonzero" fill="#cccccc" stroke="none" />
    <path d="M 66 176  L 66 131.45  L 86.25 111.2  L 114.6 127.4  L 130.8 123.35  L 147 127.4  L 147 176  L 66 176  " fill-rule="nonzero" fill="#169bd5" stroke="none" />
  </g>
</svg>