<svg t="1611026035826" class="icon" viewBox="0 0 1024 1024" version="1.1" xmlns="http://www.w3.org/2000/svg" p-id="3394" width="200" height="200"><path d="M511.65 959C265.6 959 64.3 757.26 64.3 510.7S265.6 62.41 511.65 62.41 959 264.14 959 510.7 757.69 959 511.65 959zM656 854.61a377.28 377.28 0 0 0 198.65-199.12 371.82 371.82 0 0 0 0-289.58A377.18 377.18 0 0 0 656 166.79a369.15 369.15 0 0 0-288.64 0 377.09 377.09 0 0 0-198.71 199.12 371.82 371.82 0 0 0 0 289.58A377.12 377.12 0 0 0 367.33 854.6a369.21 369.21 0 0 0 288.64 0z" fill="#5182F2" p-id="3395"></path><path d="M472 750m0-37.5l0-330q0-37.5 37.5-37.5l0 0q37.5 0 37.5 37.5l0 330q0 37.5-37.5 37.5l0 0q-37.5 0-37.5-37.5Z" fill="#5182F2" p-id="3396"></path><path d="M472 302m0-37.5l0 0q0-37.5 37.5-37.5l0 0q37.5 0 37.5 37.5l0 0q0 37.5-37.5 37.5l0 0q-37.5 0-37.5-37.5Z" fill="#5182F2" p-id="3397"></path><path d="M547 420m-37.5 0l-65 0q-37.5 0-37.5-37.5l0 0q0-37.5 37.5-37.5l65 0q37.5 0 37.5 37.5l0 0q0 37.5-37.5 37.5Z" fill="#5182F2" p-id="3398"></path><path d="M662 796m-34.88 0l-232.24 0q-34.88 0-34.88-34.88l0-5.24q0-34.88 34.88-34.88l232.24 0q34.88 0 34.88 34.88l0 5.24q0 34.88-34.88 34.88Z" fill="#5182F2" p-id="3399"></path></svg>