<?xml version="1.0" encoding="utf-8"?>
<svg version="1.1" xmlns:xlink="http://www.w3.org/1999/xlink" width="128px" height="128px" xmlns="http://www.w3.org/2000/svg">
  <defs>
    <mask fill="white" id="clip43">
      <path d="M 128 64  C 128 99.84  99.84 128  64 128  C 28.16 128  0 99.84  0 64  C 0 28.16  28.16 0  64 0  C 99.84 0  128 28.16  128 64  Z M 1.50588235294118 64  C 1.50588235294118 98.996705882353  29.003294117647 126.494117647059  64 126.494117647059  C 98.996705882353 126.494117647059  126.494117647059 98.996705882353  126.494117647059 64  C 126.494117647059 29.003294117647  98.996705882353 1.50588235294118  64 1.50588235294118  C 29.003294117647 1.50588235294118  1.50588235294118 29.003294117647  1.50588235294118 64  Z " fill-rule="evenodd" />
    </mask>
  </defs>
  <g transform="matrix(1 0 0 1 -1441 -652 )">
    <path d="M 128 64  C 128 99.84  99.84 128  64 128  C 28.16 128  0 99.84  0 64  C 0 28.16  28.16 0  64 0  C 99.84 0  128 28.16  128 64  Z M 1.50588235294118 64  C 1.50588235294118 98.996705882353  29.003294117647 126.494117647059  64 126.494117647059  C 98.996705882353 126.494117647059  126.494117647059 98.996705882353  126.494117647059 64  C 126.494117647059 29.003294117647  98.996705882353 1.50588235294118  64 1.50588235294118  C 29.003294117647 1.50588235294118  1.50588235294118 29.003294117647  1.50588235294118 64  Z " fill-rule="nonzero" fill="#5d81f2" stroke="none" transform="matrix(1 0 0 1 1441 652 )" />
    <path d="M 128 64  C 128 99.84  99.84 128  64 128  C 28.16 128  0 99.84  0 64  C 0 28.16  28.16 0  64 0  C 99.84 0  128 28.16  128 64  Z " stroke-width="2" stroke="#5d81f2" fill="none" transform="matrix(1 0 0 1 1441 652 )" mask="url(#clip43)" />
    <path d="M 1.50588235294118 64  C 1.50588235294118 98.996705882353  29.003294117647 126.494117647059  64 126.494117647059  C 98.996705882353 126.494117647059  126.494117647059 98.996705882353  126.494117647059 64  C 126.494117647059 29.003294117647  98.996705882353 1.50588235294118  64 1.50588235294118  C 29.003294117647 1.50588235294118  1.50588235294118 29.003294117647  1.50588235294118 64  Z " stroke-width="2" stroke="#5d81f2" fill="none" transform="matrix(1 0 0 1 1441 652 )" mask="url(#clip43)" />
  </g>
</svg>